<?xml version="1.0" encoding="utf-8"?>
<!-- Generator: Adobe Illustrator 20.1.0, SVG Export Plug-In . SVG Version: 6.00 Build 0)  -->
<svg version="1.1" id="Laag_1" xmlns="http://www.w3.org/2000/svg" xmlns:xlink="http://www.w3.org/1999/xlink" x="0px" y="0px"
	 viewBox="0 0 475.3 583" style="enable-background:new 0 0 475.3 583;" xml:space="preserve">
<style type="text/css">
	.st0{fill:#3C5999;}
	.st1{fill:#2B2B2B;}
	.st2{fill:#DC143C;stroke:#FFFFFF;stroke-miterlimit:10;}
	.st3{font-family:'Ailerons-Regular';}
	.st4{font-size:155.3725px;}
	.st5{fill:#FFFFFF;stroke:#000000;stroke-miterlimit:10;}
	.st6{font-size:116.5294px;}
	.st7{fill:none;}
	.st8{fill:#FFFFFF;}
	.st9{font-size:111.8682px;}
</style>
<rect y="-1.2" class="st0" width="475.3" height="583"/>
<g id="Bord">
	<g>
		<polygon class="st1" points="149.9,570.2 25.8,406.3 25.8,174.3 149.9,10.4 325.4,10.4 449.5,174.3 449.5,406.3 325.4,570.2 		"/>
	</g>
	<g>
		<polygon class="st2" points="168.3,511.9 69.9,381.9 69.9,198.7 168.3,68.7 307,68.7 405.4,198.7 405.4,381.9 307,511.9 		"/>
	</g>
</g>
<g id="Bord_1_">
	<g>
		<polygon class="st1" points="197.3,423.3 173.3,391.6 173.3,346.8 197.3,315.1 231.2,315.1 255.2,346.8 255.2,391.6 231.2,423.3 
					"/>
	</g>
	<g>
		<polygon class="st2" points="202.8,405.8 186.6,384.4 186.6,354.1 202.8,332.7 225.7,332.7 241.9,354.1 241.9,384.4 225.7,405.8 
					"/>
	</g>
</g>
<text transform="matrix(0.8971 0 0 1 113.0283 420.2436)" class="st1 st3 st4">S</text>
<text transform="matrix(0.8971 0 0 1 237.6591 420.2436)" class="st1 st3 st4">M</text>
<text transform="matrix(0.8971 0 0 1 292.6669 420.2436)" class="st5 st3 st6">E</text>
<rect x="71" y="200.3" class="st7" width="333.4" height="100.4"/>
<text transform="matrix(1 0 0 1 70.9814 278.603)" class="st8 st3 st9">Block</text>
</svg>
