<?xml version="1.0" encoding="utf-8"?>
<!-- Generator: Adobe Illustrator 20.1.0, SVG Export Plug-In . SVG Version: 6.00 Build 0)  -->
<svg version="1.1" id="Laag_1" xmlns="http://www.w3.org/2000/svg" xmlns:xlink="http://www.w3.org/1999/xlink" x="0px" y="0px"
	 viewBox="0 0 990.5 583" style="enable-background:new 0 0 990.5 583;" xml:space="preserve">
<style type="text/css">
	.st0{fill:#3C5999;}
	.st1{fill:#2B2B2B;}
	.st2{fill:#DC143C;stroke:#FFFFFF;stroke-miterlimit:10;}
	.st3{font-family:'Ailerons-Regular';}
	.st4{font-size:567.2301px;}
	.st5{fill:#FFFFFF;stroke:#000000;stroke-miterlimit:10;}
	.st6{font-size:453.7841px;}
	.st7{fill:none;}
	.st8{fill:#FFFFFF;}
	.st9{font-size:72px;}
</style>
<rect class="st0" width="990.5" height="583"/>
<g id="Bord">
	<g>
		<polygon class="st1" points="343.9,506.3 248.1,379.7 248.1,200.5 343.9,73.9 479.5,73.9 575.3,200.5 575.3,379.7 479.5,506.3 		
			"/>
	</g>
	<g>
		<polygon class="st2" points="366,436.3 301.1,350.6 301.1,229.7 366,144 457.4,144 522.3,229.7 522.3,350.6 457.4,436.3 		"/>
	</g>
</g>
<text transform="matrix(0.8971 0 0 1 -1.627604e-04 506.3493)" class="st1 st3 st4">S</text>
<text transform="matrix(0.8971 0 0 1 533.0237 506.3493)" class="st1 st3 st4">M</text>
<text transform="matrix(0.8971 0 0 1 739.0257 509.1052)" class="st5 st3 st6">E</text>
<rect x="304.4" y="264.5" class="st7" width="214.6" height="64.6"/>
<text transform="matrix(1 0 0 1 304.419 314.8936)" class="st8 st3 st9">Block</text>
</svg>
